<svg xmlns="http://www.w3.org/2000/svg" width="277" height="80" viewBox="0 0 277 80"><defs><style>.a{fill:#fff;}</style></defs><title>logo</title><path class="a" d="M98.2,50.5v1.8h3.2v1.4a4.263,4.263,0,0,1-3.9,2.5c-3.2,0-4.9-3.2-4.9-5.6S94.4,45,97.5,45c.7,0,3.2.4,3.9,2.5l1.8-1.4a6.349,6.349,0,0,0-5.6-3.5,7.5,7.5,0,0,0-7.4,7.7c0,3.8,2.5,7.7,7.4,7.7a5,5,0,0,0,3.9-1.8v1.4h2.1V49.9H98.3v.6Z"/><path class="a" d="M157.9,45.9l2.5,6.7h-4.9Zm4.6,12.3H165l-6-15.1h-2.1l-6,15.1h2.5l1.4-3.9h6.3Z"/><path class="a" d="M113.3,45.9l2.5,6.7h-4.9Zm4.2,12.3H120l-6-15.1h-2.1l-6,15.1h2.5l1.4-3.9h6Z"/><polygon class="a" points="132.3 45.2 127.4 45.2 127.4 58.2 124.9 58.2 124.9 45.2 120 45.2 120 43.1 132.3 43.1 132.3 45.2"/><polygon class="a" points="148.1 43.1 148.1 58.2 145.6 58.2 145.6 51.5 138.3 51.5 138.3 58.2 135.8 58.2 135.8 43.1 138.3 43.1 138.3 49.4 145.6 49.4 145.6 43.1 148.1 43.1"/><path class="a" d="M82,45.9l2.5,6.7H79.6Zm4.2,12.3h2.5l-6-15.1H80.6l-6,15.1h2.5l1.4-3.9h6Z"/><path class="a" d="M86.6,23.4H81.3V37.1H79.9V23.4H74.6V22h12Z"/><path class="a" d="M101,22V36.8H99.6v-7H90.8v7H89.4V22h1.4v6.7h8.8V22Z"/><path class="a" d="M115.1,35.7v1.4H104.9V22h9.8v1.4h-8.4v5.3h7.4v1.4h-7.4v5.6Z"/><path class="a" d="M134,22V36.8h-1.4v-7h-8.8v7h-1.4V22h1.4v6.7h8.8V22Z"/><path class="a" d="M144.2,37.1a7.181,7.181,0,0,1-2.8-.7,5.312,5.312,0,0,1-2.1-1.8,5.121,5.121,0,0,1-1.4-2.5,7.044,7.044,0,0,1-.4-2.8,7.181,7.181,0,0,1,.7-2.8,6.055,6.055,0,0,1,1.4-2.5,11.206,11.206,0,0,1,2.1-1.8,6.1,6.1,0,0,1,2.8-.7,7.676,7.676,0,0,1,2.8.7,5.312,5.312,0,0,1,2.1,1.8,5.121,5.121,0,0,1,1.4,2.5,7.044,7.044,0,0,1,.4,2.8,7.181,7.181,0,0,1-.7,2.8,6.055,6.055,0,0,1-1.4,2.5,11.206,11.206,0,0,1-2.1,1.8A7.181,7.181,0,0,1,144.2,37.1Zm-5.6-7.7a5.482,5.482,0,0,0,.4,2.5c.4.7.7,1.4,1.1,2.1a3.561,3.561,0,0,0,1.8,1.4,3.948,3.948,0,0,0,2.1.4,7.827,7.827,0,0,0,2.5-.7,3.561,3.561,0,0,0,1.8-1.4c.4-.7.7-1.4,1.1-2.1a3.948,3.948,0,0,0,.4-2.1,5.482,5.482,0,0,0-.4-2.5c-.4-.7-.7-1.4-1.1-2.1a9.433,9.433,0,0,0-1.8-1.1,3.948,3.948,0,0,0-2.1-.4,7.827,7.827,0,0,0-2.5.7,4.2,4.2,0,0,0-1.8,1.4c-.4.7-.7,1.4-1.1,2.1A17.18,17.18,0,0,0,138.6,29.4Z"/><path class="a" d="M167.8,36.7v-12l-5.3,9.5h-.7l-5.3-9.5V37h-1.4V22h1.4l6,10.2,6-10.2h1.4V36.8h-2.1Z"/><path class="a" d="M183.3,35.7v1.4H173.1V22h9.8v1.4h-8.4v5.3h7.7v1.4h-7.4v5.6Z"/><path class="a" d="M196.6,37.1a7.181,7.181,0,0,1-2.8-.7,5.312,5.312,0,0,1-2.1-1.8,5.121,5.121,0,0,1-1.4-2.5,7.044,7.044,0,0,1-.4-2.8,7.181,7.181,0,0,1,.7-2.8A6.055,6.055,0,0,1,192,24a11.206,11.206,0,0,1,2.1-1.8,6.1,6.1,0,0,1,2.8-.7,7.676,7.676,0,0,1,2.8.7,5.312,5.312,0,0,1,2.1,1.8,5.121,5.121,0,0,1,1.4,2.5,7.044,7.044,0,0,1,.4,2.8,7.181,7.181,0,0,1-.7,2.8,6.055,6.055,0,0,1-1.4,2.5,11.206,11.206,0,0,1-2.1,1.8A12.649,12.649,0,0,1,196.6,37.1ZM191,29.4a5.482,5.482,0,0,0,.4,2.5c.4.7.7,1.4,1.1,2.1a3.561,3.561,0,0,0,1.8,1.4,5.222,5.222,0,0,0,2.1.4,7.827,7.827,0,0,0,2.5-.7,4.2,4.2,0,0,0,1.8-1.4c.4-.7.7-1.4,1.1-2.1a3.948,3.948,0,0,0,.4-2.1,5.482,5.482,0,0,0-.4-2.5c-.4-.7-.7-1.4-1.1-2.1a3.561,3.561,0,0,0-1.8-1.4,3.948,3.948,0,0,0-2.1-.4,7.827,7.827,0,0,0-2.5.7,3.561,3.561,0,0,0-1.8,1.4c-.4.7-.7,1.4-1.1,2.1A3.948,3.948,0,0,0,191,29.4Z"/><path class="a" d="M206.8,36.7V22h9.8v1.4h-8.4V29h7v1.1h-7v7h-1.4v-.4Z"/><path class="a" d="M57.8,68.4A5.6,5.6,0,1,0,63.4,74c0-2.8-2.5-5.3-5.6-5.6"/><path class="a" d="M46.2,10.4c-6-8.1-18.6-14.8-32.3-6C3.7,11.4,3.4,25.5,9.7,30.1a5.64,5.64,0,0,0,5.3.4,5.132,5.132,0,0,0,2.5-7A4.31,4.31,0,0,0,14,20.7h0c-3.2-.7-2.8-7.4,2.1-10.9,5.3-3.9,13.7-3.9,19.7,4.9,7,10.2,6.3,21.1,4.9,33.4-1.1,8.8,1.8,16.5,6.7,19.7l2.8-3.2c-9.7-11,8.6-36.3-4-54.2"/><path class="a" d="M27.9,73a16.087,16.087,0,0,1-18-13.8c-1.1-9.1,2.5-16.9,9.8-17.9,4.6-.4,6.3,2.8,7,4.9A4.364,4.364,0,0,0,31.6,49c2.5-.4,4.2-1.8,3.9-4.9-.7-5.6-9.1-7.4-14.8-7C5.7,38.9-2,50.8.5,63.1,2.6,74.7,12.8,81,24.7,79.6c8.4-1.1,14.8-6,18.6-9.1l-2.5-2.8A32.591,32.591,0,0,1,27.9,73"/><polygon class="a" points="202.9 43.1 202.9 58.2 200.5 58.2 200.5 51.5 192.7 51.5 192.7 58.2 190.3 58.2 190.3 43.1 192.7 43.1 192.7 49.4 200.5 49.4 200.5 43.1 202.9 43.1"/><path class="a" d="M210,50.8h4.2c1.4,0,2.1-1.4,2.1-2.8a2.746,2.746,0,0,0-2.5-2.8h-4.2v5.6Zm-2.1,7.4V43.1h6.7a4.777,4.777,0,0,1,4.6,4.9,4.836,4.836,0,0,1-2.8,4.6l3.5,5.6H217l-3.2-5.3h-3.5v5.3Z"/><rect class="a" x="224" y="43.1" width="2.5" height="15.1"/><path class="a" d="M239.9,46.2a5.917,5.917,0,0,0-4.2-1.4c-1.8,0-2.8.7-2.8,2.1s1.4,1.8,3.9,2.5c2.8.7,4.9,1.4,4.9,4.6s-2.5,4.6-5.6,4.6a9.582,9.582,0,0,1-6.3-2.1l1.1-2.1a8.223,8.223,0,0,0,5.3,2.1c1.8,0,2.8-.7,2.8-2.1s-1.4-2.1-4.2-2.8-4.6-1.8-4.6-4.2c0-3.2,2.5-4.6,5.6-4.6a8.469,8.469,0,0,1,5.3,1.8Z"/><polygon class="a" points="255.7 45.2 250.4 45.2 250.4 58.2 247.9 58.2 247.9 45.2 243 45.2 243 43.1 255.7 43.1 255.7 45.2"/><rect class="a" x="258.5" y="43.1" width="2.5" height="15.1"/><polygon class="a" points="265.9 43.1 265.9 58.2 276.4 58.2 276.4 56.1 268.3 56.1 268.3 51.2 275 51.2 275 49.4 268.3 49.4 268.3 45.2 276.1 45.2 276.1 43.1 265.9 43.1"/><path class="a" d="M173.8,50.5a7.442,7.442,0,0,1,7.4-7.7,6.125,6.125,0,0,1,5.6,3.5L185,47.7a4.671,4.671,0,0,0-3.9-2.5c-3.2,0-4.9,3.2-4.9,5.6,0,2.8,1.8,5.6,4.9,5.6a4.956,4.956,0,0,0,4.2-2.5l1.8,1.4a6.513,6.513,0,0,1-6,3.5,8.1,8.1,0,0,1-7.3-8.3"/></svg>